<svg xmlns="http://www.w3.org/2000/svg" width="920" height="864" viewBox="0 0 920 864" role="img" aria-label="dowel_examples — 1,758 checks over 33 runs, by layer" font-family='system-ui, -apple-system, "Segoe UI", "Helvetica Neue", "Hiragino Sans", "Noto Sans JP", sans-serif'>
<title>dowel_examples — 1,758 checks over 33 runs, by layer</title>
<rect width="920" height="864" fill="#ffffff"/>
<text x="56.0" y="22.0" fill="#767676" font-size="11" font-weight="600" text-anchor="start" letter-spacing="0.06em">checks</text>
<text x="56.0" y="56.0" fill="#1a1a1a" font-size="34" font-weight="600" text-anchor="start">1,758</text>
<text x="56.0" y="74.0" fill="#767676" font-size="11" font-weight="400" text-anchor="start">33 runs  ·  2026-07-28 → 2026-08-21  ·  +1,664 since the first run</text>
<text x="56.0" y="104.0" fill="#1a1a1a" font-size="12" font-weight="600" text-anchor="start">Total checks, stacked by layer group</text>
<rect x="430.0" y="95.0" width="10" height="10" rx="2" fill="#2a78d6" fill-opacity="0.85"/>
<text x="445.0" y="104.0" fill="#555555" font-size="10.5" font-weight="400" text-anchor="start">projects/</text>
<rect x="514.7" y="95.0" width="10" height="10" rx="2" fill="#eb6834" fill-opacity="0.85"/>
<text x="529.7" y="104.0" fill="#555555" font-size="10.5" font-weight="400" text-anchor="start">apps/</text>
<rect x="574.2" y="95.0" width="10" height="10" rx="2" fill="#1baf7a" fill-opacity="0.85"/>
<text x="589.2" y="104.0" fill="#555555" font-size="10.5" font-weight="400" text-anchor="start">docs</text>
<line x1="56.0" y1="358.0" x2="800.0" y2="358.0" stroke="#c9c9c9" stroke-width="1"/>
<text x="48.0" y="361.5" fill="#767676" font-size="10" font-weight="400" text-anchor="end" font-variant-numeric="tabular-nums">0</text>
<line x1="56.0" y1="298.0" x2="800.0" y2="298.0" stroke="#e6e6e6" stroke-width="1"/>
<text x="48.0" y="301.5" fill="#767676" font-size="10" font-weight="400" text-anchor="end" font-variant-numeric="tabular-nums">500</text>
<line x1="56.0" y1="238.0" x2="800.0" y2="238.0" stroke="#e6e6e6" stroke-width="1"/>
<text x="48.0" y="241.5" fill="#767676" font-size="10" font-weight="400" text-anchor="end" font-variant-numeric="tabular-nums">1,000</text>
<line x1="56.0" y1="178.0" x2="800.0" y2="178.0" stroke="#e6e6e6" stroke-width="1"/>
<text x="48.0" y="181.5" fill="#767676" font-size="10" font-weight="400" text-anchor="end" font-variant-numeric="tabular-nums">1,500</text>
<line x1="56.0" y1="118.0" x2="800.0" y2="118.0" stroke="#e6e6e6" stroke-width="1"/>
<text x="48.0" y="121.5" fill="#767676" font-size="10" font-weight="400" text-anchor="end" font-variant-numeric="tabular-nums">2,000</text>
<polygon points="56.0,346.7 79.2,346.7 102.5,339.3 125.8,339.3 149.0,336.5 172.2,320.9 195.5,301.5 218.8,293.6 242.0,287.9 265.2,285.9 288.5,282.2 311.8,278.0 335.0,277.7 358.2,271.5 381.5,263.9 404.8,259.6 428.0,255.4 451.2,255.4 474.5,255.4 497.8,255.4 521.0,249.9 544.2,244.8 567.5,244.8 590.8,243.9 614.0,243.9 637.2,242.9 660.5,230.9 683.8,230.9 707.0,224.7 730.2,203.0 753.5,203.0 776.8,195.4 800.0,195.4 800.0,358.0 776.8,358.0 753.5,358.0 730.2,358.0 707.0,358.0 683.8,358.0 660.5,358.0 637.2,358.0 614.0,358.0 590.8,358.0 567.5,358.0 544.2,358.0 521.0,358.0 497.8,358.0 474.5,358.0 451.2,358.0 428.0,358.0 404.8,358.0 381.5,358.0 358.2,358.0 335.0,358.0 311.8,358.0 288.5,358.0 265.2,358.0 242.0,358.0 218.8,358.0 195.5,358.0 172.2,358.0 149.0,358.0 125.8,358.0 102.5,358.0 79.2,358.0 56.0,358.0" fill="#2a78d6" fill-opacity="0.85"/>
<polygon points="56.0,346.7 79.2,346.7 102.5,339.3 125.8,339.3 149.0,336.5 172.2,320.9 195.5,301.5 218.8,293.6 242.0,287.9 265.2,285.9 288.5,282.2 311.8,278.0 335.0,277.7 358.2,271.5 381.5,263.9 404.8,259.6 428.0,255.4 451.2,248.7 474.5,242.7 497.8,232.6 521.0,227.0 544.2,221.6 567.5,221.6 590.8,213.2 614.0,208.6 637.2,205.8 660.5,191.9 683.8,191.9 707.0,182.7 730.2,161.0 753.5,155.7 776.8,148.1 800.0,148.1 800.0,195.4 776.8,195.4 753.5,203.0 730.2,203.0 707.0,224.7 683.8,230.9 660.5,230.9 637.2,242.9 614.0,243.9 590.8,243.9 567.5,244.8 544.2,244.8 521.0,249.9 497.8,255.4 474.5,255.4 451.2,255.4 428.0,255.4 404.8,259.6 381.5,263.9 358.2,271.5 335.0,277.7 311.8,278.0 288.5,282.2 265.2,285.9 242.0,287.9 218.8,293.6 195.5,301.5 172.2,320.9 149.0,336.5 125.8,339.3 102.5,339.3 79.2,346.7 56.0,346.7" fill="#eb6834" fill-opacity="0.85"/>
<polygon points="56.0,346.7 79.2,346.7 102.5,339.3 125.8,338.4 149.0,335.7 172.2,320.1 195.5,300.6 218.8,292.7 242.0,287.1 265.2,285.0 288.5,281.3 311.8,277.1 335.0,276.9 358.2,270.6 381.5,263.1 404.8,258.8 428.0,254.6 451.2,247.7 474.5,241.7 497.8,231.6 521.0,226.0 544.2,220.6 567.5,220.5 590.8,212.1 614.0,207.5 637.2,204.8 660.5,190.8 683.8,190.8 707.0,181.6 730.2,159.9 753.5,154.6 776.8,147.0 800.0,147.0 800.0,148.1 776.8,148.1 753.5,155.7 730.2,161.0 707.0,182.7 683.8,191.9 660.5,191.9 637.2,205.8 614.0,208.6 590.8,213.2 567.5,221.6 544.2,221.6 521.0,227.0 497.8,232.6 474.5,242.7 451.2,248.7 428.0,255.4 404.8,259.6 381.5,263.9 358.2,271.5 335.0,277.7 311.8,278.0 288.5,282.2 265.2,285.9 242.0,287.9 218.8,293.6 195.5,301.5 172.2,320.9 149.0,336.5 125.8,339.3 102.5,339.3 79.2,346.7 56.0,346.7" fill="#1baf7a" fill-opacity="0.85"/>
<polyline points="56.0,346.7 79.2,346.7 102.5,339.3 125.8,339.3 149.0,336.5 172.2,320.9 195.5,301.5 218.8,293.6 242.0,287.9 265.2,285.9 288.5,282.2 311.8,278.0 335.0,277.7 358.2,271.5 381.5,263.9 404.8,259.6 428.0,255.4 451.2,255.4 474.5,255.4 497.8,255.4 521.0,249.9 544.2,244.8 567.5,244.8 590.8,243.9 614.0,243.9 637.2,242.9 660.5,230.9 683.8,230.9 707.0,224.7 730.2,203.0 753.5,203.0 776.8,195.4 800.0,195.4" fill="none" stroke="#ffffff" stroke-width="2"/>
<polyline points="56.0,346.7 79.2,346.7 102.5,339.3 125.8,339.3 149.0,336.5 172.2,320.9 195.5,301.5 218.8,293.6 242.0,287.9 265.2,285.9 288.5,282.2 311.8,278.0 335.0,277.7 358.2,271.5 381.5,263.9 404.8,259.6 428.0,255.4 451.2,248.7 474.5,242.7 497.8,232.6 521.0,227.0 544.2,221.6 567.5,221.6 590.8,213.2 614.0,208.6 637.2,205.8 660.5,191.9 683.8,191.9 707.0,182.7 730.2,161.0 753.5,155.7 776.8,148.1 800.0,148.1" fill="none" stroke="#ffffff" stroke-width="2"/>
<polyline points="56.0,346.7 79.2,346.7 102.5,339.3 125.8,338.4 149.0,335.7 172.2,320.1 195.5,300.6 218.8,292.7 242.0,287.1 265.2,285.0 288.5,281.3 311.8,277.1 335.0,276.9 358.2,270.6 381.5,263.1 404.8,258.8 428.0,254.6 451.2,247.7 474.5,241.7 497.8,231.6 521.0,226.0 544.2,220.6 567.5,220.5 590.8,212.1 614.0,207.5 637.2,204.8 660.5,190.8 683.8,190.8 707.0,181.6 730.2,159.9 753.5,154.6 776.8,147.0 800.0,147.0" fill="none" stroke="#555555" stroke-width="2" stroke-linejoin="round"/>
<circle cx="800.0" cy="147.0" r="4" fill="#555555" stroke="#ffffff" stroke-width="2"/>
<text x="812.0" y="151.0" fill="#1a1a1a" font-size="11" font-weight="600" text-anchor="start">1,758 total</text>
<text x="812.0" y="280.7" fill="#555555" font-size="10.5" font-weight="400" text-anchor="start">projects/ 1,355</text>
<text x="812.0" y="175.8" fill="#555555" font-size="10.5" font-weight="400" text-anchor="start">apps/ 394</text>
<rect x="56.0" y="118.0" width="11.6" height="240.0" fill="transparent"><title>2026-07-28  ·  94 checks  ·  projects/ 94, apps/ 0, docs 0</title></rect>
<rect x="67.6" y="118.0" width="23.2" height="240.0" fill="transparent"><title>2026-07-28  ·  94 checks  ·  projects/ 94, apps/ 0, docs 0</title></rect>
<rect x="90.9" y="118.0" width="23.2" height="240.0" fill="transparent"><title>2026-07-28  ·  156 checks  ·  projects/ 156, apps/ 0, docs 0</title></rect>
<rect x="114.1" y="118.0" width="23.2" height="240.0" fill="transparent"><title>2026-07-28  ·  163 checks  ·  projects/ 156, apps/ 0, docs 7</title></rect>
<rect x="137.4" y="118.0" width="23.2" height="240.0" fill="transparent"><title>2026-07-29  ·  186 checks  ·  projects/ 179, apps/ 0, docs 7</title></rect>
<rect x="160.6" y="118.0" width="23.2" height="240.0" fill="transparent"><title>2026-07-29  ·  316 checks  ·  projects/ 309, apps/ 0, docs 7</title></rect>
<rect x="183.9" y="118.0" width="23.2" height="240.0" fill="transparent"><title>2026-07-29  ·  478 checks  ·  projects/ 471, apps/ 0, docs 7</title></rect>
<rect x="207.1" y="118.0" width="23.2" height="240.0" fill="transparent"><title>2026-07-29  ·  544 checks  ·  projects/ 537, apps/ 0, docs 7</title></rect>
<rect x="230.4" y="118.0" width="23.2" height="240.0" fill="transparent"><title>2026-07-29  ·  591 checks  ·  projects/ 584, apps/ 0, docs 7</title></rect>
<rect x="253.6" y="118.0" width="23.2" height="240.0" fill="transparent"><title>2026-07-29  ·  608 checks  ·  projects/ 601, apps/ 0, docs 7</title></rect>
<rect x="276.9" y="118.0" width="23.2" height="240.0" fill="transparent"><title>2026-07-30  ·  639 checks  ·  projects/ 632, apps/ 0, docs 7</title></rect>
<rect x="300.1" y="118.0" width="23.2" height="240.0" fill="transparent"><title>2026-07-30  ·  674 checks  ·  projects/ 667, apps/ 0, docs 7</title></rect>
<rect x="323.4" y="118.0" width="23.2" height="240.0" fill="transparent"><title>2026-07-30  ·  676 checks  ·  projects/ 669, apps/ 0, docs 7</title></rect>
<rect x="346.6" y="118.0" width="23.2" height="240.0" fill="transparent"><title>2026-07-30  ·  728 checks  ·  projects/ 721, apps/ 0, docs 7</title></rect>
<rect x="369.9" y="118.0" width="23.2" height="240.0" fill="transparent"><title>2026-08-03  ·  791 checks  ·  projects/ 784, apps/ 0, docs 7</title></rect>
<rect x="393.1" y="118.0" width="23.2" height="240.0" fill="transparent"><title>2026-08-03  ·  827 checks  ·  projects/ 820, apps/ 0, docs 7</title></rect>
<rect x="416.4" y="118.0" width="23.2" height="240.0" fill="transparent"><title>2026-08-05  ·  862 checks  ·  projects/ 855, apps/ 0, docs 7</title></rect>
<rect x="439.6" y="118.0" width="23.2" height="240.0" fill="transparent"><title>2026-08-05  ·  919 checks  ·  projects/ 855, apps/ 56, docs 8</title></rect>
<rect x="462.9" y="118.0" width="23.2" height="240.0" fill="transparent"><title>2026-08-06  ·  969 checks  ·  projects/ 855, apps/ 106, docs 8</title></rect>
<rect x="486.1" y="118.0" width="23.2" height="240.0" fill="transparent"><title>2026-08-07  ·  1,053 checks  ·  projects/ 855, apps/ 190, docs 8</title></rect>
<rect x="509.4" y="118.0" width="23.2" height="240.0" fill="transparent"><title>2026-08-10  ·  1,100 checks  ·  projects/ 901, apps/ 191, docs 8</title></rect>
<rect x="532.6" y="118.0" width="23.2" height="240.0" fill="transparent"><title>2026-08-10  ·  1,145 checks  ·  projects/ 943, apps/ 194, docs 8</title></rect>
<rect x="555.9" y="118.0" width="23.2" height="240.0" fill="transparent"><title>2026-08-11  ·  1,146 checks  ·  projects/ 943, apps/ 194, docs 9</title></rect>
<rect x="579.1" y="118.0" width="23.2" height="240.0" fill="transparent"><title>2026-08-11  ·  1,216 checks  ·  projects/ 951, apps/ 256, docs 9</title></rect>
<rect x="602.4" y="118.0" width="23.2" height="240.0" fill="transparent"><title>2026-08-11  ·  1,254 checks  ·  projects/ 951, apps/ 294, docs 9</title></rect>
<rect x="625.6" y="118.0" width="23.2" height="240.0" fill="transparent"><title>2026-08-11  ·  1,277 checks  ·  projects/ 959, apps/ 309, docs 9</title></rect>
<rect x="648.9" y="118.0" width="23.2" height="240.0" fill="transparent"><title>2026-08-11  ·  1,393 checks  ·  projects/ 1059, apps/ 325, docs 9</title></rect>
<rect x="672.1" y="118.0" width="23.2" height="240.0" fill="transparent"><title>2026-08-12  ·  1,393 checks  ·  projects/ 1059, apps/ 325, docs 9</title></rect>
<rect x="695.4" y="118.0" width="23.2" height="240.0" fill="transparent"><title>2026-08-12  ·  1,470 checks  ·  projects/ 1111, apps/ 350, docs 9</title></rect>
<rect x="718.6" y="118.0" width="23.2" height="240.0" fill="transparent"><title>2026-08-14  ·  1,651 checks  ·  projects/ 1292, apps/ 350, docs 9</title></rect>
<rect x="741.9" y="118.0" width="23.2" height="240.0" fill="transparent"><title>2026-08-15  ·  1,695 checks  ·  projects/ 1292, apps/ 394, docs 9</title></rect>
<rect x="765.1" y="118.0" width="23.2" height="240.0" fill="transparent"><title>2026-08-21  ·  1,758 checks  ·  projects/ 1355, apps/ 394, docs 9</title></rect>
<rect x="788.4" y="118.0" width="11.6" height="240.0" fill="transparent"><title>2026-08-21  ·  1,758 checks  ·  projects/ 1355, apps/ 394, docs 9</title></rect>
<text x="56.0" y="390.0" fill="#1a1a1a" font-size="12" font-weight="600" text-anchor="start">Checks failing on purpose, regressions, and fixes</text>
<line x1="56.0" y1="460.0" x2="800.0" y2="460.0" stroke="#c9c9c9" stroke-width="1"/>
<text x="48.0" y="463.5" fill="#767676" font-size="10" font-weight="400" text-anchor="end" font-variant-numeric="tabular-nums">0</text>
<line x1="56.0" y1="404.0" x2="800.0" y2="404.0" stroke="#e6e6e6" stroke-width="1"/>
<text x="48.0" y="407.5" fill="#767676" font-size="10" font-weight="400" text-anchor="end" font-variant-numeric="tabular-nums">30</text>
<polyline points="56.0,433.9 79.2,433.9 102.5,460.0 125.8,460.0 149.0,460.0 172.2,437.6 195.5,415.2 218.8,452.5 242.0,452.5 265.2,452.5 288.5,452.5 311.8,452.5 335.0,448.8 358.2,448.8 381.5,445.1 404.8,441.3 428.0,454.4 451.2,448.8 474.5,441.3 497.8,430.1 521.0,426.4 544.2,450.7 567.5,450.7 590.8,433.9 614.0,430.1 637.2,458.1 660.5,452.5 683.8,452.5 707.0,448.8 730.2,439.5 753.5,439.5 776.8,456.3 800.0,456.3" fill="none" stroke="#fab219" stroke-width="2" stroke-linejoin="round" stroke-linecap="round"/>
<circle cx="800.0" cy="456.3" r="4" fill="#fab219" stroke="#ffffff" stroke-width="2"/>
<circle cx="435.0" cy="386.0" r="4" fill="#fab219"/>
<text x="445.0" y="390.0" fill="#555555" font-size="10.5" font-weight="400" text-anchor="start">known 2</text>
<circle cx="507.1" cy="386.0" r="4" fill="#d03b3b"/>
<text x="517.1" y="390.0" fill="#555555" font-size="10.5" font-weight="400" text-anchor="start">failed 0 (none yet)</text>
<circle cx="654.8" cy="386.0" r="4" fill="#0ca30c"/>
<text x="664.8" y="390.0" fill="#555555" font-size="10.5" font-weight="400" text-anchor="start">fixed 0 (none yet)</text>
<rect x="56.0" y="404.0" width="11.6" height="56.0" fill="transparent"><title>2026-07-28  ·  known 14, failed 0, fixed 0</title></rect>
<rect x="67.6" y="404.0" width="23.2" height="56.0" fill="transparent"><title>2026-07-28  ·  known 14, failed 0, fixed 0</title></rect>
<rect x="90.9" y="404.0" width="23.2" height="56.0" fill="transparent"><title>2026-07-28  ·  known 0, failed 0, fixed 0</title></rect>
<rect x="114.1" y="404.0" width="23.2" height="56.0" fill="transparent"><title>2026-07-28  ·  known 0, failed 0, fixed 0</title></rect>
<rect x="137.4" y="404.0" width="23.2" height="56.0" fill="transparent"><title>2026-07-29  ·  known 0, failed 0, fixed 0</title></rect>
<rect x="160.6" y="404.0" width="23.2" height="56.0" fill="transparent"><title>2026-07-29  ·  known 12, failed 0, fixed 0</title></rect>
<rect x="183.9" y="404.0" width="23.2" height="56.0" fill="transparent"><title>2026-07-29  ·  known 24, failed 0, fixed 0</title></rect>
<rect x="207.1" y="404.0" width="23.2" height="56.0" fill="transparent"><title>2026-07-29  ·  known 4, failed 0, fixed 0</title></rect>
<rect x="230.4" y="404.0" width="23.2" height="56.0" fill="transparent"><title>2026-07-29  ·  known 4, failed 0, fixed 0</title></rect>
<rect x="253.6" y="404.0" width="23.2" height="56.0" fill="transparent"><title>2026-07-29  ·  known 4, failed 0, fixed 0</title></rect>
<rect x="276.9" y="404.0" width="23.2" height="56.0" fill="transparent"><title>2026-07-30  ·  known 4, failed 0, fixed 0</title></rect>
<rect x="300.1" y="404.0" width="23.2" height="56.0" fill="transparent"><title>2026-07-30  ·  known 4, failed 0, fixed 0</title></rect>
<rect x="323.4" y="404.0" width="23.2" height="56.0" fill="transparent"><title>2026-07-30  ·  known 6, failed 0, fixed 0</title></rect>
<rect x="346.6" y="404.0" width="23.2" height="56.0" fill="transparent"><title>2026-07-30  ·  known 6, failed 0, fixed 0</title></rect>
<rect x="369.9" y="404.0" width="23.2" height="56.0" fill="transparent"><title>2026-08-03  ·  known 8, failed 0, fixed 0</title></rect>
<rect x="393.1" y="404.0" width="23.2" height="56.0" fill="transparent"><title>2026-08-03  ·  known 10, failed 0, fixed 0</title></rect>
<rect x="416.4" y="404.0" width="23.2" height="56.0" fill="transparent"><title>2026-08-05  ·  known 3, failed 0, fixed 0</title></rect>
<rect x="439.6" y="404.0" width="23.2" height="56.0" fill="transparent"><title>2026-08-05  ·  known 6, failed 0, fixed 0</title></rect>
<rect x="462.9" y="404.0" width="23.2" height="56.0" fill="transparent"><title>2026-08-06  ·  known 10, failed 0, fixed 0</title></rect>
<rect x="486.1" y="404.0" width="23.2" height="56.0" fill="transparent"><title>2026-08-07  ·  known 16, failed 0, fixed 0</title></rect>
<rect x="509.4" y="404.0" width="23.2" height="56.0" fill="transparent"><title>2026-08-10  ·  known 18, failed 0, fixed 0</title></rect>
<rect x="532.6" y="404.0" width="23.2" height="56.0" fill="transparent"><title>2026-08-10  ·  known 5, failed 0, fixed 0</title></rect>
<rect x="555.9" y="404.0" width="23.2" height="56.0" fill="transparent"><title>2026-08-11  ·  known 5, failed 0, fixed 0</title></rect>
<rect x="579.1" y="404.0" width="23.2" height="56.0" fill="transparent"><title>2026-08-11  ·  known 14, failed 0, fixed 0</title></rect>
<rect x="602.4" y="404.0" width="23.2" height="56.0" fill="transparent"><title>2026-08-11  ·  known 16, failed 0, fixed 0</title></rect>
<rect x="625.6" y="404.0" width="23.2" height="56.0" fill="transparent"><title>2026-08-11  ·  known 1, failed 0, fixed 0</title></rect>
<rect x="648.9" y="404.0" width="23.2" height="56.0" fill="transparent"><title>2026-08-11  ·  known 4, failed 0, fixed 0</title></rect>
<rect x="672.1" y="404.0" width="23.2" height="56.0" fill="transparent"><title>2026-08-12  ·  known 4, failed 0, fixed 0</title></rect>
<rect x="695.4" y="404.0" width="23.2" height="56.0" fill="transparent"><title>2026-08-12  ·  known 6, failed 0, fixed 0</title></rect>
<rect x="718.6" y="404.0" width="23.2" height="56.0" fill="transparent"><title>2026-08-14  ·  known 11, failed 0, fixed 0</title></rect>
<rect x="741.9" y="404.0" width="23.2" height="56.0" fill="transparent"><title>2026-08-15  ·  known 11, failed 0, fixed 0</title></rect>
<rect x="765.1" y="404.0" width="23.2" height="56.0" fill="transparent"><title>2026-08-21  ·  known 2, failed 0, fixed 0</title></rect>
<rect x="788.4" y="404.0" width="11.6" height="56.0" fill="transparent"><title>2026-08-21  ·  known 2, failed 0, fixed 0</title></rect>
<text x="56.0" y="476.0" fill="#767676" font-size="10" font-weight="400" text-anchor="start">2026-07-28</text>
<text x="242.0" y="476.0" fill="#767676" font-size="10" font-weight="400" text-anchor="middle">2026-07-29</text>
<text x="428.0" y="476.0" fill="#767676" font-size="10" font-weight="400" text-anchor="middle">2026-08-05</text>
<text x="614.0" y="476.0" fill="#767676" font-size="10" font-weight="400" text-anchor="middle">2026-08-11</text>
<text x="800.0" y="476.0" fill="#767676" font-size="10" font-weight="400" text-anchor="end">2026-08-21</text>
<text x="56.0" y="491.0" fill="#767676" font-size="10" font-weight="400" text-anchor="start">One point per run, oldest first. Both plots above share this axis.</text>
<text x="56.0" y="512.0" fill="#1a1a1a" font-size="12" font-weight="600" text-anchor="start">Each layer on the same scale — when it appeared, and how it grew</text>
<g><title>01-minimal: 10 checks now, first seen 2026-07-28</title>
<text x="56.0" y="535.0" fill="#555555" font-size="10" font-weight="400" text-anchor="start">01-minimal</text>
<text x="165.7" y="535.0" fill="#767676" font-size="10" font-weight="400" text-anchor="end" font-variant-numeric="tabular-nums">10</text>
<polygon points="56.0,574.0 56.0,571.7 59.4,571.7 62.9,571.7 66.3,571.7 69.7,571.7 73.1,571.7 76.6,571.7 80.0,571.7 83.4,571.7 86.9,571.7 90.3,571.7 93.7,571.7 97.1,571.7 100.6,571.7 104.0,571.7 107.4,571.7 110.9,571.7 114.3,571.7 117.7,571.7 121.1,571.7 124.6,571.7 128.0,571.7 131.4,571.7 134.9,571.7 138.3,571.7 141.7,571.7 145.1,571.7 148.6,571.7 152.0,571.7 155.4,571.7 158.9,571.7 162.3,571.7 165.7,571.7 165.7,574.0" fill="#2a78d6" fill-opacity="0.85"/>
<line x1="56.0" y1="574.0" x2="165.7" y2="574.0" stroke="#c9c9c9" stroke-width="1"/>
</g>
<g><title>02-config: 34 checks now, first seen 2026-07-28</title>
<text x="177.7" y="535.0" fill="#555555" font-size="10" font-weight="400" text-anchor="start">02-config</text>
<text x="287.4" y="535.0" fill="#767676" font-size="10" font-weight="400" text-anchor="end" font-variant-numeric="tabular-nums">34</text>
<polygon points="177.7,574.0 177.7,569.2 181.1,569.2 184.6,569.2 188.0,569.2 191.4,569.2 194.9,569.2 198.3,569.2 201.7,569.2 205.1,569.2 208.6,569.2 212.0,569.2 215.4,569.2 218.9,569.2 222.3,569.2 225.7,569.2 229.1,569.2 232.6,569.2 236.0,569.2 239.4,569.2 242.9,569.2 246.3,569.2 249.7,569.2 253.1,569.2 256.6,569.2 260.0,569.2 263.4,569.2 266.9,566.3 270.3,566.3 273.7,566.3 277.1,566.3 280.6,566.3 284.0,566.3 287.4,566.3 287.4,574.0" fill="#2a78d6" fill-opacity="0.85"/>
<line x1="177.7" y1="574.0" x2="287.4" y2="574.0" stroke="#c9c9c9" stroke-width="1"/>
</g>
<g><title>03-features: 17 checks now, first seen 2026-07-28</title>
<text x="299.4" y="535.0" fill="#555555" font-size="10" font-weight="400" text-anchor="start">03-features</text>
<text x="409.1" y="535.0" fill="#767676" font-size="10" font-weight="400" text-anchor="end" font-variant-numeric="tabular-nums">17</text>
<polygon points="299.4,574.0 299.4,570.4 302.9,570.4 306.3,570.1 309.7,570.1 313.1,570.1 316.6,570.1 320.0,570.1 323.4,570.1 326.9,570.1 330.3,570.1 333.7,570.1 337.1,570.1 340.6,570.1 344.0,570.1 347.4,570.1 350.9,570.1 354.3,570.1 357.7,570.1 361.1,570.1 364.6,570.1 368.0,570.1 371.4,570.1 374.9,570.1 378.3,570.1 381.7,570.1 385.1,570.1 388.6,570.1 392.0,570.1 395.4,570.1 398.9,570.1 402.3,570.1 405.7,570.1 409.1,570.1 409.1,574.0" fill="#2a78d6" fill-opacity="0.85"/>
<line x1="299.4" y1="574.0" x2="409.1" y2="574.0" stroke="#c9c9c9" stroke-width="1"/>
</g>
<g><title>04-diagnostics: 94 checks now, first seen 2026-07-28</title>
<text x="421.1" y="535.0" fill="#555555" font-size="10" font-weight="400" text-anchor="start">04-diagnostics</text>
<text x="530.9" y="535.0" fill="#767676" font-size="10" font-weight="400" text-anchor="end" font-variant-numeric="tabular-nums">94</text>
<polygon points="421.1,574.0 421.1,563.3 424.6,563.3 428.0,559.5 431.4,559.5 434.9,558.1 438.3,558.1 441.7,558.1 445.1,558.1 448.6,558.1 452.0,558.1 455.4,559.0 458.9,559.0 462.3,559.0 465.7,559.0 469.1,559.0 472.6,559.0 476.0,559.0 479.4,559.0 482.9,559.0 486.3,559.0 489.7,559.0 493.1,559.0 496.6,559.0 500.0,557.2 503.4,557.2 506.9,557.0 510.3,557.0 513.7,557.0 517.1,555.6 520.6,552.7 524.0,552.7 527.4,552.7 530.9,552.7 530.9,574.0" fill="#2a78d6" fill-opacity="0.85"/>
<line x1="421.1" y1="574.0" x2="530.9" y2="574.0" stroke="#c9c9c9" stroke-width="1"/>
</g>
<g><title>05-incremental: 49 checks now, first seen 2026-07-28</title>
<text x="542.9" y="535.0" fill="#555555" font-size="10" font-weight="400" text-anchor="start">05-incremental</text>
<text x="652.6" y="535.0" fill="#767676" font-size="10" font-weight="400" text-anchor="end" font-variant-numeric="tabular-nums">49</text>
<polygon points="542.9,574.0 542.9,574.0 546.3,574.0 549.7,564.0 553.1,564.0 556.6,564.0 560.0,564.0 563.4,564.0 566.9,563.1 570.3,563.1 573.7,563.1 577.1,563.1 580.6,563.1 584.0,563.1 587.4,563.1 590.9,563.1 594.3,563.1 597.7,563.1 601.1,563.1 604.6,563.1 608.0,563.1 611.4,563.1 614.9,563.1 618.3,563.1 621.7,563.1 625.1,563.1 628.6,562.9 632.0,562.9 635.4,562.9 638.9,562.9 642.3,562.9 645.7,562.9 649.1,562.9 652.6,562.9 652.6,574.0" fill="#2a78d6" fill-opacity="0.85"/>
<line x1="542.9" y1="574.0" x2="652.6" y2="574.0" stroke="#c9c9c9" stroke-width="1"/>
</g>
<g><title>06-runner: 40 checks now, first seen 2026-07-29</title>
<text x="664.6" y="535.0" fill="#555555" font-size="10" font-weight="400" text-anchor="start">06-runner</text>
<text x="774.3" y="535.0" fill="#767676" font-size="10" font-weight="400" text-anchor="end" font-variant-numeric="tabular-nums">40</text>
<polygon points="664.6,574.0 664.6,574.0 668.0,574.0 671.4,574.0 674.9,574.0 678.3,570.1 681.7,570.1 685.1,570.1 688.6,570.1 692.0,570.1 695.4,570.1 698.9,570.1 702.3,570.1 705.7,570.1 709.1,570.1 712.6,570.1 716.0,570.1 719.4,570.1 722.9,570.1 726.3,570.1 729.7,570.1 733.1,570.1 736.6,570.1 740.0,570.1 743.4,570.1 746.9,570.1 750.3,570.1 753.7,570.1 757.1,570.1 760.6,570.1 764.0,565.8 767.4,565.8 770.9,564.9 774.3,564.9 774.3,574.0" fill="#2a78d6" fill-opacity="0.85"/>
<line x1="664.6" y1="574.0" x2="774.3" y2="574.0" stroke="#c9c9c9" stroke-width="1"/>
</g>
<g><title>07-robustness: 145 checks now, first seen 2026-07-29</title>
<text x="786.3" y="535.0" fill="#555555" font-size="10" font-weight="400" text-anchor="start">07-robustness</text>
<text x="896.0" y="535.0" fill="#767676" font-size="10" font-weight="400" text-anchor="end" font-variant-numeric="tabular-nums">145</text>
<polygon points="786.3,574.0 786.3,574.0 789.7,574.0 793.1,574.0 796.6,574.0 800.0,574.0 803.4,544.5 806.9,544.5 810.3,541.1 813.7,541.1 817.1,541.1 820.6,541.1 824.0,541.1 827.4,541.1 830.9,541.1 834.3,541.1 837.7,541.1 841.1,541.1 844.6,541.1 848.0,541.1 851.4,541.1 854.9,541.1 858.3,541.1 861.7,541.1 865.1,541.1 868.6,541.1 872.0,541.1 875.4,541.1 878.9,541.1 882.3,541.1 885.7,541.1 889.1,541.1 892.6,541.1 896.0,541.1 896.0,574.0" fill="#2a78d6" fill-opacity="0.85"/>
<line x1="786.3" y1="574.0" x2="896.0" y2="574.0" stroke="#c9c9c9" stroke-width="1"/>
</g>
<g><title>08-lsp: 110 checks now, first seen 2026-07-29</title>
<text x="56.0" y="595.0" fill="#555555" font-size="10" font-weight="400" text-anchor="start">08-lsp</text>
<text x="165.7" y="595.0" fill="#767676" font-size="10" font-weight="400" text-anchor="end" font-variant-numeric="tabular-nums">110</text>
<polygon points="56.0,634.0 56.0,634.0 59.4,634.0 62.9,634.0 66.3,634.0 69.7,634.0 73.1,634.0 76.6,612.0 80.0,612.0 83.4,612.0 86.9,612.0 90.3,612.0 93.7,612.0 97.1,612.0 100.6,612.0 104.0,609.1 107.4,609.1 110.9,609.1 114.3,609.1 117.7,609.1 121.1,609.1 124.6,609.1 128.0,609.1 131.4,609.1 134.9,609.1 138.3,609.1 141.7,609.1 145.1,609.1 148.6,609.1 152.0,609.1 155.4,609.1 158.9,609.1 162.3,609.1 165.7,609.1 165.7,634.0" fill="#2a78d6" fill-opacity="0.85"/>
<line x1="56.0" y1="634.0" x2="165.7" y2="634.0" stroke="#c9c9c9" stroke-width="1"/>
</g>
<g><title>09-acquisition: 121 checks now, first seen 2026-07-29</title>
<text x="177.7" y="595.0" fill="#555555" font-size="10" font-weight="400" text-anchor="start">09-acquisition</text>
<text x="287.4" y="595.0" fill="#767676" font-size="10" font-weight="400" text-anchor="end" font-variant-numeric="tabular-nums">121</text>
<polygon points="177.7,634.0 177.7,634.0 181.1,634.0 184.6,634.0 188.0,634.0 191.4,634.0 194.9,634.0 198.3,619.3 201.7,618.8 205.1,618.8 208.6,618.8 212.0,618.8 215.4,618.8 218.9,618.8 222.3,618.8 225.7,618.8 229.1,618.8 232.6,618.8 236.0,618.8 239.4,618.8 242.9,618.8 246.3,618.8 249.7,618.8 253.1,618.8 256.6,618.8 260.0,618.8 263.4,618.8 266.9,618.8 270.3,618.8 273.7,612.5 277.1,609.5 280.6,609.5 284.0,606.6 287.4,606.6 287.4,634.0" fill="#2a78d6" fill-opacity="0.85"/>
<line x1="177.7" y1="634.0" x2="287.4" y2="634.0" stroke="#c9c9c9" stroke-width="1"/>
</g>
<g><title>10-toolchain: 53 checks now, first seen 2026-07-29</title>
<text x="299.4" y="595.0" fill="#555555" font-size="10" font-weight="400" text-anchor="start">10-toolchain</text>
<text x="409.1" y="595.0" fill="#767676" font-size="10" font-weight="400" text-anchor="end" font-variant-numeric="tabular-nums">53</text>
<polygon points="299.4,634.0 299.4,634.0 302.9,634.0 306.3,634.0 309.7,634.0 313.1,634.0 316.6,634.0 320.0,634.0 323.4,627.0 326.9,627.0 330.3,627.0 333.7,627.0 337.1,627.0 340.6,627.0 344.0,627.0 347.4,627.0 350.9,627.0 354.3,627.0 357.7,627.0 361.1,627.0 364.6,627.0 368.0,627.0 371.4,627.0 374.9,627.0 378.3,627.0 381.7,627.0 385.1,627.0 388.6,627.0 392.0,627.0 395.4,627.0 398.9,622.2 402.3,622.2 405.7,622.0 409.1,622.0 409.1,634.0" fill="#2a78d6" fill-opacity="0.85"/>
<line x1="299.4" y1="634.0" x2="409.1" y2="634.0" stroke="#c9c9c9" stroke-width="1"/>
</g>
<g><title>11-cross: 17 checks now, first seen 2026-07-29</title>
<text x="421.1" y="595.0" fill="#555555" font-size="10" font-weight="400" text-anchor="start">11-cross</text>
<text x="530.9" y="595.0" fill="#767676" font-size="10" font-weight="400" text-anchor="end" font-variant-numeric="tabular-nums">17</text>
<polygon points="421.1,634.0 421.1,634.0 424.6,634.0 428.0,634.0 431.4,634.0 434.9,634.0 438.3,634.0 441.7,634.0 445.1,630.8 448.6,630.8 452.0,630.8 455.4,630.8 458.9,630.8 462.3,630.8 465.7,630.1 469.1,630.1 472.6,630.1 476.0,630.1 479.4,630.1 482.9,630.1 486.3,630.1 489.7,630.1 493.1,630.1 496.6,630.1 500.0,630.1 503.4,630.1 506.9,630.1 510.3,630.1 513.7,630.1 517.1,630.1 520.6,630.1 524.0,630.1 527.4,630.1 530.9,630.1 530.9,634.0" fill="#2a78d6" fill-opacity="0.85"/>
<line x1="421.1" y1="634.0" x2="530.9" y2="634.0" stroke="#c9c9c9" stroke-width="1"/>
</g>
<g><title>12-store: 43 checks now, first seen 2026-07-29</title>
<text x="542.9" y="595.0" fill="#555555" font-size="10" font-weight="400" text-anchor="start">12-store</text>
<text x="652.6" y="595.0" fill="#767676" font-size="10" font-weight="400" text-anchor="end" font-variant-numeric="tabular-nums">43</text>
<polygon points="542.9,634.0 542.9,634.0 546.3,634.0 549.7,634.0 553.1,634.0 556.6,634.0 560.0,634.0 563.4,634.0 566.9,634.0 570.3,627.4 573.7,627.4 577.1,627.4 580.6,627.4 584.0,627.4 587.4,627.4 590.9,627.4 594.3,627.4 597.7,627.4 601.1,627.4 604.6,627.4 608.0,627.4 611.4,627.4 614.9,627.4 618.3,627.4 621.7,627.4 625.1,627.4 628.6,627.4 632.0,627.4 635.4,627.4 638.9,624.3 642.3,624.3 645.7,624.3 649.1,624.3 652.6,624.3 652.6,634.0" fill="#2a78d6" fill-opacity="0.85"/>
<line x1="542.9" y1="634.0" x2="652.6" y2="634.0" stroke="#c9c9c9" stroke-width="1"/>
</g>
<g><title>13-parallel: 18 checks now, first seen 2026-07-29</title>
<text x="664.6" y="595.0" fill="#555555" font-size="10" font-weight="400" text-anchor="start">13-parallel</text>
<text x="774.3" y="595.0" fill="#767676" font-size="10" font-weight="400" text-anchor="end" font-variant-numeric="tabular-nums">18</text>
<polygon points="664.6,634.0 664.6,634.0 668.0,634.0 671.4,634.0 674.9,634.0 678.3,634.0 681.7,634.0 685.1,634.0 688.6,634.0 692.0,629.9 695.4,629.9 698.9,629.9 702.3,629.9 705.7,629.9 709.1,629.9 712.6,629.9 716.0,629.9 719.4,629.9 722.9,629.9 726.3,629.9 729.7,629.9 733.1,629.9 736.6,629.9 740.0,629.9 743.4,629.9 746.9,629.9 750.3,629.9 753.7,629.9 757.1,629.9 760.6,629.9 764.0,629.9 767.4,629.9 770.9,629.9 774.3,629.9 774.3,634.0" fill="#2a78d6" fill-opacity="0.85"/>
<line x1="664.6" y1="634.0" x2="774.3" y2="634.0" stroke="#c9c9c9" stroke-width="1"/>
</g>
<g><title>14-scale: 17 checks now, first seen 2026-07-29</title>
<text x="786.3" y="595.0" fill="#555555" font-size="10" font-weight="400" text-anchor="start">14-scale</text>
<text x="896.0" y="595.0" fill="#767676" font-size="10" font-weight="400" text-anchor="end" font-variant-numeric="tabular-nums">17</text>
<polygon points="786.3,634.0 786.3,634.0 789.7,634.0 793.1,634.0 796.6,634.0 800.0,634.0 803.4,634.0 806.9,634.0 810.3,634.0 813.7,634.0 817.1,630.1 820.6,630.1 824.0,630.1 827.4,630.1 830.9,630.1 834.3,630.1 837.7,630.1 841.1,630.1 844.6,630.1 848.0,630.1 851.4,630.1 854.9,630.1 858.3,630.1 861.7,630.1 865.1,630.1 868.6,630.1 872.0,630.1 875.4,630.1 878.9,630.1 882.3,630.1 885.7,630.1 889.1,630.1 892.6,630.1 896.0,630.1 896.0,634.0" fill="#2a78d6" fill-opacity="0.85"/>
<line x1="786.3" y1="634.0" x2="896.0" y2="634.0" stroke="#c9c9c9" stroke-width="1"/>
</g>
<g><title>15-cpp: 70 checks now, first seen 2026-07-30</title>
<text x="56.0" y="655.0" fill="#555555" font-size="10" font-weight="400" text-anchor="start">15-cpp</text>
<text x="165.7" y="655.0" fill="#767676" font-size="10" font-weight="400" text-anchor="end" font-variant-numeric="tabular-nums">70</text>
<polygon points="56.0,694.0 56.0,694.0 59.4,694.0 62.9,694.0 66.3,694.0 69.7,694.0 73.1,694.0 76.6,694.0 80.0,694.0 83.4,694.0 86.9,694.0 90.3,686.1 93.7,678.1 97.1,677.7 100.6,677.7 104.0,677.7 107.4,678.1 110.9,678.1 114.3,678.1 117.7,678.1 121.1,678.1 124.6,678.1 128.0,678.1 131.4,678.1 134.9,678.1 138.3,678.1 141.7,678.1 145.1,678.1 148.6,678.1 152.0,678.1 155.4,678.1 158.9,678.1 162.3,678.1 165.7,678.1 165.7,694.0" fill="#2a78d6" fill-opacity="0.85"/>
<line x1="56.0" y1="694.0" x2="165.7" y2="694.0" stroke="#c9c9c9" stroke-width="1"/>
</g>
<g><title>16-migrate: 87 checks now, first seen 2026-07-30</title>
<text x="177.7" y="655.0" fill="#555555" font-size="10" font-weight="400" text-anchor="start">16-migrate</text>
<text x="287.4" y="655.0" fill="#767676" font-size="10" font-weight="400" text-anchor="end" font-variant-numeric="tabular-nums">87</text>
<polygon points="177.7,694.0 177.7,694.0 181.1,694.0 184.6,694.0 188.0,694.0 191.4,694.0 194.9,694.0 198.3,694.0 201.7,694.0 205.1,694.0 208.6,694.0 212.0,694.0 215.4,694.0 218.9,694.0 222.3,682.9 225.7,682.9 229.1,681.8 232.6,681.8 236.0,681.8 239.4,681.8 242.9,681.8 246.3,681.8 249.7,681.8 253.1,681.8 256.6,681.8 260.0,681.8 263.4,681.8 266.9,678.6 270.3,678.6 273.7,677.7 277.1,677.7 280.6,677.7 284.0,674.3 287.4,674.3 287.4,694.0" fill="#2a78d6" fill-opacity="0.85"/>
<line x1="177.7" y1="694.0" x2="287.4" y2="694.0" stroke="#c9c9c9" stroke-width="1"/>
</g>
<g><title>17-deps: 83 checks now, first seen 2026-08-03</title>
<text x="299.4" y="655.0" fill="#555555" font-size="10" font-weight="400" text-anchor="start">17-deps</text>
<text x="409.1" y="655.0" fill="#767676" font-size="10" font-weight="400" text-anchor="end" font-variant-numeric="tabular-nums">83</text>
<polygon points="299.4,694.0 299.4,694.0 302.9,694.0 306.3,694.0 309.7,694.0 313.1,694.0 316.6,694.0 320.0,694.0 323.4,694.0 326.9,694.0 330.3,694.0 333.7,694.0 337.1,694.0 340.6,694.0 344.0,694.0 347.4,682.7 350.9,682.7 354.3,682.4 357.7,682.4 361.1,682.4 364.6,682.4 368.0,682.4 371.4,682.4 374.9,682.4 378.3,682.4 381.7,682.4 385.1,682.4 388.6,678.8 392.0,678.8 395.4,678.8 398.9,675.2 402.3,675.2 405.7,675.2 409.1,675.2 409.1,694.0" fill="#2a78d6" fill-opacity="0.85"/>
<line x1="299.4" y1="694.0" x2="409.1" y2="694.0" stroke="#c9c9c9" stroke-width="1"/>
</g>
<g><title>18-tools: 32 checks now, first seen 2026-08-03</title>
<text x="421.1" y="655.0" fill="#555555" font-size="10" font-weight="400" text-anchor="start">18-tools</text>
<text x="530.9" y="655.0" fill="#767676" font-size="10" font-weight="400" text-anchor="end" font-variant-numeric="tabular-nums">32</text>
<polygon points="421.1,694.0 421.1,694.0 424.6,694.0 428.0,694.0 431.4,694.0 434.9,694.0 438.3,694.0 441.7,694.0 445.1,694.0 448.6,694.0 452.0,694.0 455.4,694.0 458.9,694.0 462.3,694.0 465.7,694.0 469.1,694.0 472.6,686.5 476.0,686.7 479.4,686.7 482.9,686.7 486.3,686.7 489.7,686.7 493.1,686.7 496.6,686.7 500.0,686.7 503.4,686.7 506.9,686.7 510.3,686.7 513.7,686.7 517.1,686.7 520.6,686.7 524.0,686.7 527.4,686.7 530.9,686.7 530.9,694.0" fill="#2a78d6" fill-opacity="0.85"/>
<line x1="421.1" y1="694.0" x2="530.9" y2="694.0" stroke="#c9c9c9" stroke-width="1"/>
</g>
<g><title>19-artifacts: 35 checks now, first seen 2026-08-05</title>
<text x="542.9" y="655.0" fill="#555555" font-size="10" font-weight="400" text-anchor="start">19-artifacts</text>
<text x="652.6" y="655.0" fill="#767676" font-size="10" font-weight="400" text-anchor="end" font-variant-numeric="tabular-nums">35</text>
<polygon points="542.9,694.0 542.9,694.0 546.3,694.0 549.7,694.0 553.1,694.0 556.6,694.0 560.0,694.0 563.4,694.0 566.9,694.0 570.3,694.0 573.7,694.0 577.1,694.0 580.6,694.0 584.0,694.0 587.4,694.0 590.9,694.0 594.3,694.0 597.7,686.1 601.1,686.1 604.6,686.1 608.0,686.1 611.4,686.1 614.9,686.1 618.3,686.1 621.7,686.1 625.1,686.1 628.6,686.1 632.0,686.1 635.4,686.1 638.9,686.1 642.3,686.1 645.7,686.1 649.1,686.1 652.6,686.1 652.6,694.0" fill="#2a78d6" fill-opacity="0.85"/>
<line x1="542.9" y1="694.0" x2="652.6" y2="694.0" stroke="#c9c9c9" stroke-width="1"/>
</g>
<g><title>20-cases: 62 checks now, first seen 2026-08-10</title>
<text x="664.6" y="655.0" fill="#555555" font-size="10" font-weight="400" text-anchor="start">20-cases</text>
<text x="774.3" y="655.0" fill="#767676" font-size="10" font-weight="400" text-anchor="end" font-variant-numeric="tabular-nums">62</text>
<polygon points="664.6,694.0 664.6,694.0 668.0,694.0 671.4,694.0 674.9,694.0 678.3,694.0 681.7,694.0 685.1,694.0 688.6,694.0 692.0,694.0 695.4,694.0 698.9,694.0 702.3,694.0 705.7,694.0 709.1,694.0 712.6,694.0 716.0,694.0 719.4,694.0 722.9,694.0 726.3,694.0 729.7,694.0 733.1,683.6 736.6,680.4 740.0,680.4 743.4,680.4 746.9,680.4 750.3,679.9 753.7,679.9 757.1,679.9 760.6,679.9 764.0,679.9 767.4,679.9 770.9,679.9 774.3,679.9 774.3,694.0" fill="#2a78d6" fill-opacity="0.85"/>
<line x1="664.6" y1="694.0" x2="774.3" y2="694.0" stroke="#c9c9c9" stroke-width="1"/>
</g>
<g><title>21-debug: 32 checks now, first seen 2026-08-10</title>
<text x="786.3" y="655.0" fill="#555555" font-size="10" font-weight="400" text-anchor="start">21-debug</text>
<text x="896.0" y="655.0" fill="#767676" font-size="10" font-weight="400" text-anchor="end" font-variant-numeric="tabular-nums">32</text>
<polygon points="786.3,694.0 786.3,694.0 789.7,694.0 793.1,694.0 796.6,694.0 800.0,694.0 803.4,694.0 806.9,694.0 810.3,694.0 813.7,694.0 817.1,694.0 820.6,694.0 824.0,694.0 827.4,694.0 830.9,694.0 834.3,694.0 837.7,694.0 841.1,694.0 844.6,694.0 848.0,694.0 851.4,694.0 854.9,694.0 858.3,687.7 861.7,687.7 865.1,687.7 868.6,687.7 872.0,686.7 875.4,686.7 878.9,686.7 882.3,686.7 885.7,686.7 889.1,686.7 892.6,686.7 896.0,686.7 896.0,694.0" fill="#2a78d6" fill-opacity="0.85"/>
<line x1="786.3" y1="694.0" x2="896.0" y2="694.0" stroke="#c9c9c9" stroke-width="1"/>
</g>
<g><title>22-bench: 34 checks now, first seen 2026-08-11</title>
<text x="56.0" y="715.0" fill="#555555" font-size="10" font-weight="400" text-anchor="start">22-bench</text>
<text x="165.7" y="715.0" fill="#767676" font-size="10" font-weight="400" text-anchor="end" font-variant-numeric="tabular-nums">34</text>
<polygon points="56.0,754.0 56.0,754.0 59.4,754.0 62.9,754.0 66.3,754.0 69.7,754.0 73.1,754.0 76.6,754.0 80.0,754.0 83.4,754.0 86.9,754.0 90.3,754.0 93.7,754.0 97.1,754.0 100.6,754.0 104.0,754.0 107.4,754.0 110.9,754.0 114.3,754.0 117.7,754.0 121.1,754.0 124.6,754.0 128.0,754.0 131.4,754.0 134.9,754.0 138.3,754.0 141.7,754.0 145.1,746.3 148.6,746.3 152.0,746.3 155.4,746.3 158.9,746.3 162.3,746.3 165.7,746.3 165.7,754.0" fill="#2a78d6" fill-opacity="0.85"/>
<line x1="56.0" y1="754.0" x2="165.7" y2="754.0" stroke="#c9c9c9" stroke-width="1"/>
</g>
<g><title>23-probe: 23 checks now, first seen 2026-08-11</title>
<text x="177.7" y="715.0" fill="#555555" font-size="10" font-weight="400" text-anchor="start">23-probe</text>
<text x="287.4" y="715.0" fill="#767676" font-size="10" font-weight="400" text-anchor="end" font-variant-numeric="tabular-nums">23</text>
<polygon points="177.7,754.0 177.7,754.0 181.1,754.0 184.6,754.0 188.0,754.0 191.4,754.0 194.9,754.0 198.3,754.0 201.7,754.0 205.1,754.0 208.6,754.0 212.0,754.0 215.4,754.0 218.9,754.0 222.3,754.0 225.7,754.0 229.1,754.0 232.6,754.0 236.0,754.0 239.4,754.0 242.9,754.0 246.3,754.0 249.7,754.0 253.1,754.0 256.6,754.0 260.0,754.0 263.4,754.0 266.9,748.8 270.3,748.8 273.7,748.8 277.1,748.8 280.6,748.8 284.0,748.8 287.4,748.8 287.4,754.0" fill="#2a78d6" fill-opacity="0.85"/>
<line x1="177.7" y1="754.0" x2="287.4" y2="754.0" stroke="#c9c9c9" stroke-width="1"/>
</g>
<g><title>24-install: 48 checks now, first seen 2026-08-14</title>
<text x="299.4" y="715.0" fill="#555555" font-size="10" font-weight="400" text-anchor="start">24-install</text>
<text x="409.1" y="715.0" fill="#767676" font-size="10" font-weight="400" text-anchor="end" font-variant-numeric="tabular-nums">48</text>
<polygon points="299.4,754.0 299.4,754.0 302.9,754.0 306.3,754.0 309.7,754.0 313.1,754.0 316.6,754.0 320.0,754.0 323.4,754.0 326.9,754.0 330.3,754.0 333.7,754.0 337.1,754.0 340.6,754.0 344.0,754.0 347.4,754.0 350.9,754.0 354.3,754.0 357.7,754.0 361.1,754.0 364.6,754.0 368.0,754.0 371.4,754.0 374.9,754.0 378.3,754.0 381.7,754.0 385.1,754.0 388.6,754.0 392.0,754.0 395.4,754.0 398.9,743.6 402.3,743.6 405.7,743.1 409.1,743.1 409.1,754.0" fill="#2a78d6" fill-opacity="0.85"/>
<line x1="299.4" y1="754.0" x2="409.1" y2="754.0" stroke="#c9c9c9" stroke-width="1"/>
</g>
<g><title>25-asm: 53 checks now, first seen 2026-08-14</title>
<text x="421.1" y="715.0" fill="#555555" font-size="10" font-weight="400" text-anchor="start">25-asm</text>
<text x="530.9" y="715.0" fill="#767676" font-size="10" font-weight="400" text-anchor="end" font-variant-numeric="tabular-nums">53</text>
<polygon points="421.1,754.0 421.1,754.0 424.6,754.0 428.0,754.0 431.4,754.0 434.9,754.0 438.3,754.0 441.7,754.0 445.1,754.0 448.6,754.0 452.0,754.0 455.4,754.0 458.9,754.0 462.3,754.0 465.7,754.0 469.1,754.0 472.6,754.0 476.0,754.0 479.4,754.0 482.9,754.0 486.3,754.0 489.7,754.0 493.1,754.0 496.6,754.0 500.0,754.0 503.4,754.0 506.9,754.0 510.3,754.0 513.7,754.0 517.1,754.0 520.6,748.1 524.0,748.1 527.4,742.0 530.9,742.0 530.9,754.0" fill="#2a78d6" fill-opacity="0.85"/>
<line x1="421.1" y1="754.0" x2="530.9" y2="754.0" stroke="#c9c9c9" stroke-width="1"/>
</g>
<g><title>26-prebuilt: 28 checks now, first seen 2026-08-14</title>
<text x="542.9" y="715.0" fill="#555555" font-size="10" font-weight="400" text-anchor="start">26-prebuilt</text>
<text x="652.6" y="715.0" fill="#767676" font-size="10" font-weight="400" text-anchor="end" font-variant-numeric="tabular-nums">28</text>
<polygon points="542.9,754.0 542.9,754.0 546.3,754.0 549.7,754.0 553.1,754.0 556.6,754.0 560.0,754.0 563.4,754.0 566.9,754.0 570.3,754.0 573.7,754.0 577.1,754.0 580.6,754.0 584.0,754.0 587.4,754.0 590.9,754.0 594.3,754.0 597.7,754.0 601.1,754.0 604.6,754.0 608.0,754.0 611.4,754.0 614.9,754.0 618.3,754.0 621.7,754.0 625.1,754.0 628.6,754.0 632.0,754.0 635.4,754.0 638.9,754.0 642.3,747.9 645.7,747.9 649.1,747.7 652.6,747.7 652.6,754.0" fill="#2a78d6" fill-opacity="0.85"/>
<line x1="542.9" y1="754.0" x2="652.6" y2="754.0" stroke="#c9c9c9" stroke-width="1"/>
</g>
<g><title>blink: 59 checks now, first seen 2026-08-06</title>
<text x="664.6" y="715.0" fill="#555555" font-size="10" font-weight="400" text-anchor="start">blink</text>
<text x="774.3" y="715.0" fill="#767676" font-size="10" font-weight="400" text-anchor="end" font-variant-numeric="tabular-nums">59</text>
<polygon points="664.6,754.0 664.6,754.0 668.0,754.0 671.4,754.0 674.9,754.0 678.3,754.0 681.7,754.0 685.1,754.0 688.6,754.0 692.0,754.0 695.4,754.0 698.9,754.0 702.3,754.0 705.7,754.0 709.1,754.0 712.6,754.0 716.0,754.0 719.4,754.0 722.9,754.0 726.3,745.8 729.7,745.8 733.1,746.1 736.6,745.4 740.0,745.4 743.4,745.4 746.9,745.4 750.3,745.2 753.7,745.2 757.1,745.2 760.6,743.1 764.0,743.1 767.4,740.6 770.9,740.6 774.3,740.6 774.3,754.0" fill="#eb6834" fill-opacity="0.85"/>
<line x1="664.6" y1="754.0" x2="774.3" y2="754.0" stroke="#c9c9c9" stroke-width="1"/>
</g>
<g><title>dsp: 60 checks now, first seen 2026-08-11</title>
<text x="786.3" y="715.0" fill="#555555" font-size="10" font-weight="400" text-anchor="start">dsp</text>
<text x="896.0" y="715.0" fill="#767676" font-size="10" font-weight="400" text-anchor="end" font-variant-numeric="tabular-nums">60</text>
<polygon points="786.3,754.0 786.3,754.0 789.7,754.0 793.1,754.0 796.6,754.0 800.0,754.0 803.4,754.0 806.9,754.0 810.3,754.0 813.7,754.0 817.1,754.0 820.6,754.0 824.0,754.0 827.4,754.0 830.9,754.0 834.3,754.0 837.7,754.0 841.1,754.0 844.6,754.0 848.0,754.0 851.4,754.0 854.9,754.0 858.3,754.0 861.7,754.0 865.1,754.0 868.6,745.4 872.0,744.5 875.4,744.5 878.9,744.5 882.3,743.3 885.7,743.3 889.1,740.4 892.6,740.4 896.0,740.4 896.0,754.0" fill="#eb6834" fill-opacity="0.85"/>
<line x1="786.3" y1="754.0" x2="896.0" y2="754.0" stroke="#c9c9c9" stroke-width="1"/>
</g>
<g><title>hashx: 88 checks now, first seen 2026-08-07</title>
<text x="56.0" y="775.0" fill="#555555" font-size="10" font-weight="400" text-anchor="start">hashx</text>
<text x="165.7" y="775.0" fill="#767676" font-size="10" font-weight="400" text-anchor="end" font-variant-numeric="tabular-nums">88</text>
<polygon points="56.0,814.0 56.0,814.0 59.4,814.0 62.9,814.0 66.3,814.0 69.7,814.0 73.1,814.0 76.6,814.0 80.0,814.0 83.4,814.0 86.9,814.0 90.3,814.0 93.7,814.0 97.1,814.0 100.6,814.0 104.0,814.0 107.4,814.0 110.9,814.0 114.3,814.0 117.7,814.0 121.1,805.4 124.6,804.7 128.0,804.7 131.4,804.7 134.9,804.7 138.3,804.7 141.7,804.7 145.1,801.1 148.6,801.1 152.0,798.6 155.4,798.6 158.9,794.1 162.3,794.1 165.7,794.1 165.7,814.0" fill="#eb6834" fill-opacity="0.85"/>
<line x1="56.0" y1="814.0" x2="165.7" y2="814.0" stroke="#c9c9c9" stroke-width="1"/>
</g>
<g><title>httpd: 36 checks now, first seen 2026-08-05</title>
<text x="177.7" y="775.0" fill="#555555" font-size="10" font-weight="400" text-anchor="start">httpd</text>
<text x="287.4" y="775.0" fill="#767676" font-size="10" font-weight="400" text-anchor="end" font-variant-numeric="tabular-nums">36</text>
<polygon points="177.7,814.0 177.7,814.0 181.1,814.0 184.6,814.0 188.0,814.0 191.4,814.0 194.9,814.0 198.3,814.0 201.7,814.0 205.1,814.0 208.6,814.0 212.0,814.0 215.4,814.0 218.9,814.0 222.3,814.0 225.7,814.0 229.1,814.0 232.6,814.0 236.0,808.1 239.4,806.5 242.9,805.6 246.3,805.8 249.7,805.8 253.1,805.8 256.6,805.8 260.0,805.8 263.4,805.8 266.9,805.8 270.3,805.8 273.7,805.8 277.1,805.8 280.6,805.8 284.0,805.8 287.4,805.8 287.4,814.0" fill="#eb6834" fill-opacity="0.85"/>
<line x1="177.7" y1="814.0" x2="287.4" y2="814.0" stroke="#c9c9c9" stroke-width="1"/>
</g>
<g><title>jsonfmt: 39 checks now, first seen 2026-08-05</title>
<text x="299.4" y="775.0" fill="#555555" font-size="10" font-weight="400" text-anchor="start">jsonfmt</text>
<text x="409.1" y="775.0" fill="#767676" font-size="10" font-weight="400" text-anchor="end" font-variant-numeric="tabular-nums">39</text>
<polygon points="299.4,814.0 299.4,814.0 302.9,814.0 306.3,814.0 309.7,814.0 313.1,814.0 316.6,814.0 320.0,814.0 323.4,814.0 326.9,814.0 330.3,814.0 333.7,814.0 337.1,814.0 340.6,814.0 344.0,814.0 347.4,814.0 350.9,814.0 354.3,814.0 357.7,807.2 361.1,805.6 364.6,805.6 368.0,805.6 371.4,805.6 374.9,805.6 378.3,805.6 381.7,805.6 385.1,805.2 388.6,805.2 392.0,805.2 395.4,805.2 398.9,805.2 402.3,805.2 405.7,805.2 409.1,805.2 409.1,814.0" fill="#eb6834" fill-opacity="0.85"/>
<line x1="299.4" y1="814.0" x2="409.1" y2="814.0" stroke="#c9c9c9" stroke-width="1"/>
</g>
<g><title>plot: 42 checks now, first seen 2026-08-07</title>
<text x="421.1" y="775.0" fill="#555555" font-size="10" font-weight="400" text-anchor="start">plot</text>
<text x="530.9" y="775.0" fill="#767676" font-size="10" font-weight="400" text-anchor="end" font-variant-numeric="tabular-nums">42</text>
<polygon points="421.1,814.0 421.1,814.0 424.6,814.0 428.0,814.0 431.4,814.0 434.9,814.0 438.3,814.0 441.7,814.0 445.1,814.0 448.6,814.0 452.0,814.0 455.4,814.0 458.9,814.0 462.3,814.0 465.7,814.0 469.1,814.0 472.6,814.0 476.0,814.0 479.4,814.0 482.9,814.0 486.3,804.5 489.7,804.5 493.1,804.5 496.6,804.5 500.0,804.5 503.4,804.5 506.9,804.5 510.3,804.5 513.7,804.5 517.1,804.5 520.6,804.5 524.0,804.5 527.4,804.5 530.9,804.5 530.9,814.0" fill="#eb6834" fill-opacity="0.85"/>
<line x1="421.1" y1="814.0" x2="530.9" y2="814.0" stroke="#c9c9c9" stroke-width="1"/>
</g>
<g><title>vision: 32 checks now, first seen 2026-08-11</title>
<text x="542.9" y="775.0" fill="#555555" font-size="10" font-weight="400" text-anchor="start">vision</text>
<text x="652.6" y="775.0" fill="#767676" font-size="10" font-weight="400" text-anchor="end" font-variant-numeric="tabular-nums">32</text>
<polygon points="542.9,814.0 542.9,814.0 546.3,814.0 549.7,814.0 553.1,814.0 556.6,814.0 560.0,814.0 563.4,814.0 566.9,814.0 570.3,814.0 573.7,814.0 577.1,814.0 580.6,814.0 584.0,814.0 587.4,814.0 590.9,814.0 594.3,814.0 597.7,814.0 601.1,814.0 604.6,814.0 608.0,814.0 611.4,814.0 614.9,814.0 618.3,814.0 621.7,806.7 625.1,806.7 628.6,806.7 632.0,806.7 635.4,806.7 638.9,806.7 642.3,806.7 645.7,806.7 649.1,806.7 652.6,806.7 652.6,814.0" fill="#eb6834" fill-opacity="0.85"/>
<line x1="542.9" y1="814.0" x2="652.6" y2="814.0" stroke="#c9c9c9" stroke-width="1"/>
</g>
<g><title>winapp: 38 checks now, first seen 2026-08-11</title>
<text x="664.6" y="775.0" fill="#555555" font-size="10" font-weight="400" text-anchor="start">winapp</text>
<text x="774.3" y="775.0" fill="#767676" font-size="10" font-weight="400" text-anchor="end" font-variant-numeric="tabular-nums">38</text>
<polygon points="664.6,814.0 664.6,814.0 668.0,814.0 671.4,814.0 674.9,814.0 678.3,814.0 681.7,814.0 685.1,814.0 688.6,814.0 692.0,814.0 695.4,814.0 698.9,814.0 702.3,814.0 705.7,814.0 709.1,814.0 712.6,814.0 716.0,814.0 719.4,814.0 722.9,814.0 726.3,814.0 729.7,814.0 733.1,814.0 736.6,814.0 740.0,814.0 743.4,807.2 746.9,807.2 750.3,805.4 753.7,805.4 757.1,805.4 760.6,805.4 764.0,805.4 767.4,805.4 770.9,805.4 774.3,805.4 774.3,814.0" fill="#eb6834" fill-opacity="0.85"/>
<line x1="664.6" y1="814.0" x2="774.3" y2="814.0" stroke="#c9c9c9" stroke-width="1"/>
</g>
<g><title>docs: 9 checks now, first seen 2026-07-28</title>
<text x="786.3" y="775.0" fill="#555555" font-size="10" font-weight="400" text-anchor="start">docs</text>
<text x="896.0" y="775.0" fill="#767676" font-size="10" font-weight="400" text-anchor="end" font-variant-numeric="tabular-nums">9</text>
<polygon points="786.3,814.0 786.3,814.0 789.7,814.0 793.1,814.0 796.6,812.4 800.0,812.4 803.4,812.4 806.9,812.4 810.3,812.4 813.7,812.4 817.1,812.4 820.6,812.4 824.0,812.4 827.4,812.4 830.9,812.4 834.3,812.4 837.7,812.4 841.1,812.4 844.6,812.2 848.0,812.2 851.4,812.2 854.9,812.2 858.3,812.2 861.7,812.0 865.1,812.0 868.6,812.0 872.0,812.0 875.4,812.0 878.9,812.0 882.3,812.0 885.7,812.0 889.1,812.0 892.6,812.0 896.0,812.0 896.0,814.0" fill="#1baf7a" fill-opacity="0.85"/>
<line x1="786.3" y1="814.0" x2="896.0" y2="814.0" stroke="#c9c9c9" stroke-width="1"/>
</g>
<text x="56.0" y="828.0" fill="#767676" font-size="10" font-weight="400" text-anchor="start">Same vertical scale everywhere: 0 to 150 checks.</text>
<text x="56.0" y="848.0" fill="#767676" font-size="10" font-weight="400" text-anchor="start">Generated by CI from history.json on the publication branch. The same numbers, run by run, are in the History table.</text>
</svg>
